<?xml version="1.0" standalone="no"?><!DOCTYPE svg PUBLIC "-//W3C//DTD SVG 1.1//EN" "http://www.w3.org/Graphics/SVG/1.1/DTD/svg11.dtd"><svg t="1680849690619" class="icon" viewBox="0 0 1024 1024" version="1.1" xmlns="http://www.w3.org/2000/svg" p-id="9604" xmlns:xlink="http://www.w3.org/1999/xlink" width="128" height="128"><path d="M469.333333 320v218.026667l200.128 119.04 33.706667-54.613334-170.666667-101.12V320m0-213.333333c-150.613333 0-281.173333 81.92-351.146666 203.52L85.333333 213.333333v277.333334h277.333334L245.333333 373.333333C296.128 265.813333 405.333333 192 533.333333 192A320 320 0 0 1 853.333333 512a320 320 0 0 1-320 320c-139.52 0-257.28-89.173333-301.226666-213.333333h-89.6c46.933333 171.946667 203.52 298.666667 390.826666 298.666666 223.573333 0 405.333333-181.333333 405.333334-405.333333a405.333333 405.333333 0 0 0-405.333334-405.333333z" fill="#8BC34A" p-id="9605"></path></svg>
