<?xml version="1.0" standalone="no"?><!DOCTYPE svg PUBLIC "-//W3C//DTD SVG 1.1//EN" "http://www.w3.org/Graphics/SVG/1.1/DTD/svg11.dtd"><svg t="1680847150847" class="icon" viewBox="0 0 1028 1024" version="1.1" xmlns="http://www.w3.org/2000/svg" p-id="6841" xmlns:xlink="http://www.w3.org/1999/xlink" width="128.5" height="128"><path d="M426.666667 170.666667H170.666667c-47.36 0-85.333333 37.973333-85.333334 85.333333v512c0 46.805333 38.528 85.333333 85.333334 85.333333h682.666666c46.805333 0 85.333333-38.528 85.333334-85.333333V341.333333a85.333333 85.333333 0 0 0-85.333334-85.333333h-341.333333l-85.333333-85.333333z" fill="#CDDC39" p-id="6842"></path><path d="M477.226667 410.154667h228.096v123.733333l161.365333-161.066667 161.066667 161.066667-161.066667 161.365333h123.733333v228.096h-228.096v-228.096h104.362667l-161.365333-161.365333v104.362667h-228.096V410.154667m0 285.098666h228.096v228.096h-228.096z" fill="#F0F4C3" p-id="6843"></path></svg>
