<?xml version="1.0" standalone="no"?><!DOCTYPE svg PUBLIC "-//W3C//DTD SVG 1.1//EN" "http://www.w3.org/Graphics/SVG/1.1/DTD/svg11.dtd"><svg t="1680849621797" class="icon" viewBox="0 0 1024 1024" version="1.1" xmlns="http://www.w3.org/2000/svg" p-id="9286" xmlns:xlink="http://www.w3.org/1999/xlink" width="128" height="128"><path d="M664.71255 295.601493l-58.026666 117.169494c19.063467 17.660587 32.518827 40.925867 37.843626 67.2768h43.731627a125.702827 125.702827 0 0 1 35.037867-64.750934z" fill="#F4511E" p-id="9287"></path><path d="M557.912764 384.4608l106.8032-215.845547 106.519893 217.245014c4.201813-1.399467 8.40704-2.522453 12.612267-3.642027l101.195093-298.53696H444.105404l100.911786 297.693867c4.205227 0.843093 8.690347 1.962667 12.895574 3.085653zM521.192124 575.35488c38.9632 0 70.638933-31.675733 70.638933-70.638933 0-14.29504-4.205227-27.470507-11.492693-38.683307-2.24256-3.64544-5.044907-7.007573-7.850667-10.093227l-0.279893-0.279893a52.302507 52.302507 0 0 0-9.530027-8.127147l-0.279893-0.279893c-0.83968-0.5632-1.962667-1.40288-3.08224-1.962667-0.279893 0-0.279893-0.279893-0.559787-0.279893-1.122987-0.5632-2.24256-1.40288-3.365547-1.962667h-0.279893c-1.122987-0.559787-2.525867-1.399467-3.64544-1.962666h-0.279893c-1.119573-0.559787-2.24256-1.122987-3.362134-1.399467-0.279893 0-0.5632-0.283307-0.843093-0.283307-0.83968-0.279893-1.962667-0.83968-2.798933-1.119573-0.283307 0-0.5632-0.279893-1.1264-0.279893-1.119573-0.283307-2.239147-0.843093-3.362134-1.122987h-0.279893c-1.399467-0.279893-2.525867-0.559787-3.925333-0.83968-0.279893 0-0.559787 0-1.119574-0.279893-1.122987-0.283307-1.962667-0.283307-3.085653-0.5632-0.559787 0-0.83968 0-1.399467-0.279894-0.843093 0-1.962667-0.279893-2.802346-0.279893h-10.932907c-1.122987 0-1.962667 0.279893-3.085653 0.279893h-1.119574c-1.122987 0.279893-2.24256 0.279893-3.365546 0.559787h-0.83968c-1.399467 0.283307-2.525867 0.5632-3.925334 0.843093-30.83264 7.56736-53.82144 35.601067-53.82144 68.676267 0.5632 38.403413 32.238933 70.35904 71.202134 70.35904zM818.326204 434.0736h-0.559787c-1.119573 0-1.962667-0.27648-3.08224-0.27648h-3.64544c-1.399467 0-2.802347 0-4.48512 0.279893h-1.399467c-1.122987 0-2.24256 0.279893-3.365546 0.279894-0.279893 0-0.83968 0-1.119574 0.279893l-4.205226 0.83968h-0.279894c-1.40288 0.283307-2.525867 0.5632-3.925333 0.843093-0.279893 0-0.843093 0.279893-1.122987 0.279894-1.119573 0.279893-2.24256 0.559787-3.362133 1.119573-0.279893 0-0.559787 0.283307-0.843093 0.283307-1.399467 0.559787-2.798933 1.119573-3.925334 1.67936-1.399467 0.5632-2.51904 1.122987-3.92192 1.682773-0.279893 0-0.559787 0.279893-0.83968 0.279893-1.122987 0.559787-2.24256 1.122987-3.365546 1.962667 0 0-0.279893 0-0.279894 0.279893a42.325333 42.325333 0 0 0-7.287466 5.044907l-0.279894 0.279893c-3.64544 2.80576-6.72768 5.888-9.813333 9.250134s-5.604693 7.29088-7.850667 11.216213a71.048533 71.048533 0 0 0-9.250133 35.037867c0 38.9632 31.675733 70.638933 70.642347 70.638933s70.638933-31.675733 70.638933-70.638933c0-34.2016-24.66816-63.071573-56.900267-69.51936-1.686187-0.559787-3.925333-0.83968-6.171306-1.119574zM228.259857 575.35488c38.966613 0 70.642347-31.675733 70.642347-70.638933s-31.675733-70.638933-70.642347-70.638934-70.638933 31.675733-70.638933 70.638934 31.675733 70.638933 70.638933 70.638933z" fill="#F4511E" p-id="9288"></path><path d="M811.31863 630.016c-58.30656 0-107.359573-40.082773-121.378133-93.904213h-47.090347c-14.015147 53.82144-63.071573 93.904213-121.378133 93.904213-6.724267 0-13.175467-0.559787-19.34336-1.399467-16.257707 24.948053-35.601067 47.93344-58.303147 69.236054-40.086187 37.843627-85.497173 65.877333-134.5536 83.534506l-11.492693 4.205227-10.6496-5.604693c-58.86976-30.276267-89.142613-91.665067-78.4896-151.0912a108.817067 108.817067 0 0 1-19.34336-5.044907c-1.119573 1.962667-1.962667 4.205227-3.08224 6.447787-17.94048 37.000533-36.72064 75.124053-43.451733 116.04992-7.287467 43.728213-10.369707 123.620693 51.3024 166.229333 26.907307 18.500267 55.220907 27.7504 86.89664 27.7504 60.8256 0 126.42304-32.518827 195.938986-66.996907 54.381227-26.91072 110.445227-54.941013 168.751787-69.239466 22.145707-5.3248 44.571307-8.686933 66.153813-11.772587 39.5264-5.604693 77.08672-11.2128 107.64288-28.873387 32.515413-18.78016 54.66112-50.176 60.8256-86.05696 3.925333-21.8624 1.686187-44.008107-5.604693-64.47104-18.500267 10.6496-40.082773 17.1008-63.351467 17.1008z" fill="#F4511E" p-id="9289"></path></svg>
