<?xml version="1.0" standalone="no"?><!DOCTYPE svg PUBLIC "-//W3C//DTD SVG 1.1//EN" "http://www.w3.org/Graphics/SVG/1.1/DTD/svg11.dtd"><svg t="1680847026344" class="icon" viewBox="0 0 1024 1024" version="1.1" xmlns="http://www.w3.org/2000/svg" p-id="5095" xmlns:xlink="http://www.w3.org/1999/xlink" width="128" height="128"><path d="M858.208256 197.072896C833.23904 99.10272 670.80192 66.90816 517.062656 121.520128c-91.50464 32.514048-190.523392 83.52768-261.75488 150.13888-84.682752 79.2064-98.187264 148.129792-92.602368 176.939008 19.625984 101.623808 158.89408 168.075264 216.13568 217.344v0.294912c-16.887808 8.296448-140.42112 70.83008-169.336832 134.7584-30.500864 67.444736 4.857856 115.826688 28.270592 122.351616 72.548352 20.189184 146.97472-16.109568 187.006976-75.79648 38.608896-57.58976 35.387392-131.936256 18.60608-168.935424 23.1424-6.094848 50.126848-8.833024 84.414464-4.83328 128.763904 11.30496 115.746816 71.714816 112.121856 97.007616s-23.922688 39.19872-30.715904 43.38688-8.859648 5.666816-8.2944 8.779776c0.831488 4.538368 3.97312 4.376576 9.744384 3.383296 7.974912-1.34144 50.798592-20.566016 52.652032-67.229696 2.33472-59.256832-54.450176-125.546496-155.000832-123.8016-41.402368 0.724992-67.446784 4.644864-86.267904 11.65312-1.394688-1.585152-2.791424-3.170304-4.268032-4.726784-62.1568-66.318336-177.07008-113.22368-172.212224-202.389504 1.773568-32.407552 13.049856-117.76 220.809216-221.292544 170.196992-84.815872 306.458624-61.458432 330.00448-9.746432 33.642496 73.889792-72.814592 211.224576-249.563136 231.038976-67.33824 7.544832-102.807552-18.55488-111.613952-28.27264-9.289728-10.22976-10.657792-10.686464-14.149632-8.779776-5.638144 3.141632-2.06848 12.163072 0 17.559552 5.289984 13.746176 26.9312 38.098944 63.848448 50.208768 32.487424 10.657792 111.532032 16.510976 207.169536-20.45952 107.073536-41.48224 190.70976-156.719104 166.141952-253.028352zM402.604032 696.30976c8.02816 29.696 7.141376 57.376768-1.155072 82.425856a133.711872 133.711872 0 0 1-6.6048 16.32256c-6.38976 13.264896-14.98112 25.669632-25.479168 37.134336-32.059392 34.95936-76.816384 48.195584-128.014336 37.052416-20.72576-12.027904-10.336256-61.323264 26.796032-100.57728 39.97696-42.26048 97.488896-69.431296 97.488896-69.431296l-0.079872-0.16384 5.04832-2.7648z" fill="#EC407A" p-id="5096"></path></svg>
