<?xml version="1.0" standalone="no"?><!DOCTYPE svg PUBLIC "-//W3C//DTD SVG 1.1//EN" "http://www.w3.org/Graphics/SVG/1.1/DTD/svg11.dtd"><svg t="1680847084076" class="icon" viewBox="0 0 1024 1024" version="1.1" xmlns="http://www.w3.org/2000/svg" p-id="6047" xmlns:xlink="http://www.w3.org/1999/xlink" width="128" height="128"><path d="M651.366367 798.25916c74.951676-89.651196 83.773436-182.241271 25.717759-354.191342-36.741118-108.753915-97.735675-192.52735-52.910077-260.131827 47.769598-72.012796 149.171193-2.2016 64.665597 94.059515l16.901119 11.75552c101.406715 11.760639 151.377912-127.129594 75.688956-166.809592-199.87455-104.345595-374.768621 128.266235-297.610225 328.473583 33.070078 98.467835 79.365116 202.81855 41.886718 285.854706-32.332798 71.280636-94.796795 113.167354-136.678393 114.636794-87.444476 4.41344-29.388799-196.19839 71.280636-246.169587 8.81664-4.4032 21.309439-10.286079 9.55392-24.985599-124.185594-13.957119-196.93567 43.356158-238.822389 123.458554-121.983994 232.944628 231.475188 318.919664 420.331499 94.054395z" fill="#C0CA33" p-id="6048"></path></svg>
