<?xml version="1.0" standalone="no"?><!DOCTYPE svg PUBLIC "-//W3C//DTD SVG 1.1//EN" "http://www.w3.org/Graphics/SVG/1.1/DTD/svg11.dtd"><svg t="1680849780204" class="icon" viewBox="0 0 1024 1024" version="1.1" xmlns="http://www.w3.org/2000/svg" p-id="10077" xmlns:xlink="http://www.w3.org/1999/xlink" width="128" height="128"><path d="M365.312 684.458667a25391.189333 25391.189333 0 0 1-20.48-212.608c0.042667-1.792-9.642667-3.242667-21.589333-3.242667h-21.674667V386.133333h169.216V226.133333l79.829333-48c48.64-29.226667 84.394667-48 91.477334-48 17.066667 0 36.949333 21.589333 36.949333 40.106667 0 8.064-2.432 17.962667-5.418667 22.058667-2.986667 4.053333-30.805333 22.613333-61.866666 41.173333l-56.362667 33.834667-1.194667 59.392-1.237333 59.434666h169.472v82.474667h-41.813333l-21.077334 212.608-21.12 212.608H386.005333l-20.693333-209.365333z" fill="#E53935" p-id="10078"></path></svg>
