<?xml version="1.0" standalone="no"?><!DOCTYPE svg PUBLIC "-//W3C//DTD SVG 1.1//EN" "http://www.w3.org/Graphics/SVG/1.1/DTD/svg11.dtd"><svg t="1680847053473" class="icon" viewBox="0 0 1024 1024" version="1.1" xmlns="http://www.w3.org/2000/svg" p-id="5569" xmlns:xlink="http://www.w3.org/1999/xlink" width="128" height="128"><path d="M882.405522 766.940663c-43.745985 10.388303-65.892632 19.957406-120.030451 55.228909-84.758949 54.681598-177.17318 80.112108-177.17318 80.112107s-7.655282 11.482924-29.80193 16.677076c-38.276412 9.297213-182.367332 17.227917-195.492186 17.499806-35.271502 0.27189-56.870839-9.021793-62.887722-23.516689-18.315475-43.742454 26.249709-62.88066 26.249709-62.88066s-9.840993-6.016883-15.582455-11.482924c-5.194152-5.194152-10.663724-15.585986-12.305654-11.758344-6.832551 16.677075-10.388303 57.41815-28.70731 75.740687-25.155089 25.423447-72.728715 16.948965-100.888713 2.18571-30.896551-16.405186 2.189241-54.957019 2.189241-54.957019s-16.680606 9.840993-30.077351-10.391834c-12.030234-18.590896-23.241268-50.306647-20.232827-89.40579 3.827641-45.112495 53.590508-88.311169 53.590509-88.311169s-8.749903-65.889101 19.960937-133.427195c25.974289-61.517681 95.969983-111.005127 95.969983-111.005128s-58.78466-64.794481-36.909902-123.582671c14.215944-38.276412 19.957406-38.004523 24.604247-39.646454 16.405186-6.285241 32.263061-13.121324 44.021406-25.974289 58.78466-63.431501 133.699085-51.401267 133.699085-51.401267s34.999613-107.449376 67.806452-86.397349c10.116413 6.564193 46.479005 87.491969 46.479006 87.49197s38.823723-22.693958 43.198674-14.215945c23.516689 45.656274 26.249709 132.879885 15.857875 185.923084-17.496275 87.491969-61.245791 134.521816-78.742066 164.048325-4.099531 6.836083 47.026316 28.43542 79.289377 117.84121 29.80193 81.750508 3.283862 150.379691 7.930703 158.034973 0.8192 1.36651 1.094621 1.913821 1.094621 1.913821s34.176882 2.733021 102.802534-39.646454c36.638013-22.693958 80.112108-48.120936 129.599554-48.668246 47.845516-0.8192 50.306647 55.504329 14.491365 63.978811z" fill="#2C8EBB" p-id="5570"></path></svg>
