<?xml version="1.0" standalone="no"?><!DOCTYPE svg PUBLIC "-//W3C//DTD SVG 1.1//EN" "http://www.w3.org/Graphics/SVG/1.1/DTD/svg11.dtd"><svg t="1680849710322" class="icon" viewBox="0 0 1024 1024" version="1.1" xmlns="http://www.w3.org/2000/svg" p-id="9758" xmlns:xlink="http://www.w3.org/1999/xlink" width="128" height="128"><path d="M512 512m-437.599086 0a437.599086 437.599086 0 1 0 875.198172 0 437.599086 437.599086 0 1 0-875.198172 0Z" fill="#FFCA28" p-id="9759"></path><path d="M476.628114 138.656914c-35.766857 25.336686-64.8192 62.229943-86.242743 104.316343-16.0768-16.676571-30.610286-36.937143-44.6976-63.429486-24.2688 36.395886-38.151314 81.115429-43.103085 127.970743-20.5312-9.764571-40.128-23.259429-63.122286-42.525257-9.610971 42.642286-6.546286 89.351314 5.610057 134.846172-23.1424-1.631086-47.528229-6.948571-75.776-17.232458 6.326857 43.300571 25.951086 85.847771 53.635657 123.984458-21.781943 6.473143-45.984914 10.115657-75.337143 10.627657 21.496686 38.275657 55.200914 71.050971 94.880915 128.768-18.322286 14.328686-40.067657 26.7264-68.015543 38.019657 33.616457 27.904 76.609829 46.379886 122.631314 56.210286-11.849143 19.360914-27.377371 38.239086-48.815543 58.221714 41.325714 13.984914 87.990857 15.842743 134.414629 8.557714-4.066743 22.659657-11.893029 46.1824-24.956343 72.96h0.014629c43.717486-1.755429 88.078629-16.822857 128.899657-40.374857 4.388571 22.7328 5.558857 47.616 2.940343 77.480229 88.1152-37.961143 156.489143-136.323657 180.626285-233.698743 6.582857-17.6128 10.130286-43.015314 10.130286-78.262857 0-9.457371-0.226743-18.512457-0.555886-27.392 71.255771-12.105143 123.165257-36.578743 152.970972-54.052572 10.927543-6.414629 22.016-15.835429 25.570743-23.552v-0.014628a37.507657 37.507657 0 0 0-27.062858-61.696 37.507657 37.507657 0 0 0-37.909942 28.445257c-57.929143-30.149486-124.196571-91.260343-108.097829-179.573029 12.039314-16.815543 28.869486-33.667657 52.150857-51.317028-43.534629-5.105371-89.790171 2.8672-133.866057 19.799771-0.694857-22.930286 2.048-47.484343 9.230629-76.288-42.247314 10.773943-82.373486 34.618514-117.328458 65.974857-8.923429-21.226057-15.184457-45.202286-18.812342-74.773943z m193.572572 143.045486c-0.109714 44.741486 19.368229 85.050514 54.213485 119.083886 31.934171 31.195429 76.258743 55.222857 111.601372 64.329143 2.179657 2.399086 2.421029 5.3248-0.256 9.398857-2.8672 2.223543-6.034286 4.410514-9.333029 6.341485-33.733486 19.777829-75.015314 36.7104-123.392 47.586743-7.840914 1.755429-15.754971 3.349943-23.771428 4.746972-1.938286-36.169143-6.202514-67.605943-10.400915-96a25.007543 25.007543 0 1 0-0.672914-49.027657 15.637943 15.637943 0 0 1-2.048 30.551771c-8.118857-54.381714-13.458286-128.680229 4.059429-137.0112z" fill="#37474F" p-id="9760"></path></svg>
