<?xml version="1.0" standalone="no"?><!DOCTYPE svg PUBLIC "-//W3C//DTD SVG 1.1//EN" "http://www.w3.org/Graphics/SVG/1.1/DTD/svg11.dtd"><svg t="1680849140385" class="icon" viewBox="0 0 1037 1024" version="1.1" xmlns="http://www.w3.org/2000/svg" p-id="8176" xmlns:xlink="http://www.w3.org/1999/xlink" width="129.625" height="128"><path d="M244.342154 440.083692c1.181538 0.905846 3.242667 1.483487 1.181538 3.255795-1.483487 2.061128-3.242667 3.833436-4.424205 6.209641-1.181538 2.074256-2.061128 2.651897-3.833436 1.181539 2.363077-3.846564 4.699897-7.404308 7.062975-10.646975z m593.197949 309.720616c0 0.87959 0.288821 1.457231 0.28882 2.363077 0.603897-1.181538 0.603897-1.772308 0.905846-2.363077z m0 2.651897v-0.28882z m-60.192821 115.265641l-51.370667-284.882051c-0.866462-0.288821-2.048-0.866462-4.122256-1.470359 0.590769 1.181538 0.892718 2.074256 1.181538 2.953846 1.457231-0.288821 2.074256-0.288821 2.651898-0.577641 0-0.301949 0-0.590769 0.301949-0.905846l51.357538 284.908308zM724.217436 518.695385c-0.288821 0.866462-0.288821 1.772308-0.288821 2.651897 0-0.892718 0-1.785436 0.315077-2.665026z m0.28882 5.907692c-0.288821 0-0.288821 0-0.577641-0.328205v0.28882c0.315077 0.301949 0.315077 0.301949 0.603898 0z m-0.577641 2.349949v-2.087385c-0.866462 0.301949-1.746051 0.301949-2.940718 0.603897 1.483487 0.551385 2.966974 0.866462 2.966975 1.444103z" fill="#E53935" p-id="8177"></path><path d="M953.816615 455.154872c-0.577641-11.526564-0.87959-23.053128-2.061128-34.566564-2.061128-15.661949-4.122256-31.625846-7.666872-46.998975-2.665026-12.694974-7.076103-24.812308-11.513436-36.929641-5.605744-14.178462-11.211487-28.672-18.300717-42.27282-11.500308-21.858462-26.558359-41.366974-40.434872-61.755077-9.163487-13.010051-20.965744-23.643897-29.827282-36.942769-5.014974-7.68-12.393026-14.178462-19.771077-20.086154-11.815385-9.465436-24.195282-18.051282-36.588308-26.308923a364.754051 364.754051 0 0 0-28.934564-18.326975c-7.968821-4.46359-16.52841-8.008205-24.786051-11.841641-9.452308-4.437333-18.602667-9.754256-29.210257-11.815384-2.678154-0.564513-5.028103-1.470359-7.693128-2.363077-6.774154-2.363077-13.272615-5.014974-20.073026-7.089231-10.318769-3.255795-20.348718-7.089231-30.982564-9.754256-10.292513-2.651897-20.926359-4.424205-31.560205-5.907693-11.802256-1.746051-23.893333-2.363077-35.708718-3.518359a300.898462 300.898462 0 0 0-22.711795-2.061128c-11.224615-0.590769-22.724923-0.590769-33.949538-0.87959-5.605744-0.301949-11.500308-0.905846-17.106051-0.603897-8.55959 0.301949-17.119179 1.181538-25.67877 2.363077-8.270769 0.892718-16.52841 2.363077-24.484102 3.544615-9.714872 1.181538-19.456 1.785436-29.210257 2.966975-9.150359 1.181538-18.589538 2.966974-27.726769 4.437333-3.255795 0.603897-6.51159 1.772308-9.754256 2.363077-7.076103 1.483487-14.441026 2.074256-21.530257 4.437333-12.681846 3.859692-25.389949 8.297026-37.782974 13.010051a347.241026 347.241026 0 0 0-33.634462 15.661949c-11.224615 6.196513-21.845333 13.574564-32.466051 20.690051a508.310974 508.310974 0 0 0-29.84041 21.556513c-9.412923 7.404308-18.274462 15.675077-26.84718 23.945846-4.713026 4.726154-8.55959 10.345026-12.996923 15.661949-7.351795 8.572718-14.729846 16.843487-21.819077 25.718154-5.881436 7.391179-11.224615 15.071179-16.830359 22.764308-10.016821 13.561436-18.563282 28.054974-26.518974 42.535384-3.268923 5.907692-6.209641 11.828513-9.163487 17.723077-4.424205 8.861538-9.150359 17.447385-13.272615 26.610872-2.966974 6.209641-5.316923 12.996923-7.089231 19.797333-4.122256 14.493538-8.257641 29.275897-12.091077 43.74318-3.544615 12.996923-4.437333 26.597744-4.713026 39.909743-0.301949 11.815385 0.87959 23.341949 2.048 35.157334 0.315077 2.966974-1.444103 6.51159 2.074257 8.861538-1.181538 3.255795-0.301949 5.054359 1.444102 5.605744-2.034872 3.255795 0.905846 5.343179-0.262564 8.297025-0.301949 0.590769 0.905846 1.772308 1.457231 2.651898 0 0.892718-0.275692 2.074256 0 2.966974 0.315077 2.651897 1.496615 5.303795 1.496615 8.27077 0 2.061128 1.759179 4.424205 2.363077 6.498461 0.275692 0.87959 0 2.363077-0.603897 2.953846-1.772308 2.061128-1.483487 3.833436 1.181538 5.028103 1.483487 3.833436 0.892718 5.605744 0.603898 7.404307 0.577641 2.638769-0.301949 3.531487 0 4.122257 2.363077 4.726154 3.255795 10.043077 3.531487 15.36 0 1.181538 0.590769 2.376205 1.181538 3.846564 0.301949 0 0 5.605744 0 5.605744 1.457231-0.866462 2.665026-1.155282 4.135385-1.75918 0.892718 3.833436 1.772308 7.404308 2.940718 10.660103 1.483487 2.363077 1.483487 3.518359 0.905846 3.807179 1.181538 5.316923 1.759179 10.345026 3.807179 15.36 0-5.605744-0.551385-11.211487-1.444102-16.541538 4.122256 1.483487 7.666872 2.953846 10.029949 2.953846 0.301949-0.892718 0.590769-2.061128 0.892718-2.651898-1.772308-1.759179-3.255795-4.424205-5.028103-6.196512 0.603897 2.363077 0 3.255795 0 4.148512-1.181538-0.603897-2.651897-1.194667-4.122256-1.785436 1.181538-1.457231 2.363077-2.953846 4.122256-4.726153 0-2.651897-1.444103-5.041231-5.605744-4.726154 1.772308-0.590769 3.544615-1.470359 5.605744-2.074257 3.255795-1.759179-0.288821-5.014974-0.28882-9.150359 0.288821-5.014974-2.651897-10.029949-3.544616-15.36-1.483487-8.270769-1.181538-20.676923-2.061128-28.96082-1.772308-1.470359-3.255795 2.363077-3.544615 2.665026 0.892718 7.089231 1.772308 14.178462 2.363076 21.267692-1.772308-5.907692-2.953846-12.406154-4.424205-19.508513-0.301949 2.074256-0.590769 2.953846-0.590769 4.148513-1.457231 1.457231-0.301949 3.255795 0.590769 5.316923-2.061128-0.905846-4.424205-0.590769-4.424205-0.590769v8.270769c-2.940718-2.953846-3.807179-5.303795-5.316923-7.39118-0.577641-2.363077-0.892718-4.713026-1.444102-7.062974 0.551385-1.496615 0-2.376205 0-3.255795a179.068718 179.068718 0 0 1-0.905847-7.102359c0.288821-0.301949-0.288821-4.726154-0.28882-4.726154 2.363077 0.288821 3.846564 0.564513 5.316923 0.564513-2.953846-3.807179-0.905846-6.183385 0.301949-8.546461 0.590769-1.181538 2.651897-1.457231 3.255795-2.678154 2.349949-4.424205 6.196513-7.955692 6.196512-13.587692 0-2.651897 0.892718-5.605744 1.181539-8.27077 0.590769-5.028103 1.181538-10.056205 1.444102-15.084307 0.617026-6.498462 0-12.996923 1.496616-19.206565 2.376205-10.318769 5.330051-20.663795 8.572718-31.021948 2.363077-7.404308 5.028103-14.467282 7.955692-21.87159 4.437333-11.526564 8.572718-23.053128 14.178462-33.975795 7.968821-15.963897 17.119179-31.337026 25.980718-46.998974 5.605744-9.741128 11.500308-18.904615 17.723076-28.356923 5.881436-9.163487 11.762872-18.628923 18.576411-27.201641a240.574359 240.574359 0 0 1 31.284513-33.398154c11.815385-10.633846 23.026872-21.569641 35.708717-31.323898a361.314462 361.314462 0 0 1 52.539077-33.700102c15.071179-7.955692 30.693744-14.19159 46.342565-20.11241 10.043077-3.833436 20.952615-5.605744 31.284512-8.848411a124.127179 124.127179 0 0 1 36.010667-5.907692c7.955692-0.315077 15.635692-1.194667 23.604513-2.087385 7.089231-0.551385 14.165333-1.16841 21.845333-2.048-0.892718 1.181538-1.181538 1.772308-1.483487 2.363077-3.229538 4.726154-6.774154 9.452308-10.029949 14.178462-2.651897 3.846564-5.605744 7.981949-8.270769 11.815384-4.726154 6.235897-9.741128 12.43241-14.165333 18.930872-6.787282 9.767385-12.996923 19.810462-20.073026 29.55159-7.062974 9.452308-14.742974 18.326974-22.121026 27.477333-9.741128 12.721231-18.891487 25.718154-28.619487 38.426257-8.861538 12.104205-18.28759 23.657026-26.860307 35.774359-7.666872 10.620718-14.467282 21.87159-21.845334 32.781128-10.89641 16.265846-21.832205 32.203487-32.741743 48.469333a3049.629538 3049.629538 0 0 1-25.980718 36.94277c-0.590769 0.892718-1.470359 1.16841-2.349949 1.759179-2.363077 3.833436-2.363077 5.907692-3.255795 7.68-2.349949 4.437333-4.699897 8.861538-7.378051 13.010051-1.470359 2.363077-3.544615 4.424205-5.316923 6.787282-0.288821-3.544615 4.726154-5.316923 2.363077-9.754256-1.457231 2.363077-2.953846 4.437333-4.424205 6.80041l-3.544616 7.062975c1.181538 0.905846 3.255795 1.496615 1.181539 3.255794-0.892718 1.496615-1.772308 3.255795-2.665026 4.752411a10.699487 10.699487 0 0 0 3.255795-2.966975c0 3.255795-1.772308 5.907692-3.255795 8.55959-1.181538 2.363077-4.122256 4.148513-6.183385 5.907692 0.288821 0.301949 2.363077 1.181538 2.651898 1.483488 2.665026-0.905846 3.544615-2.363077 3.846564-1.483488 0.905846-1.181538 1.772308-2.061128 2.074256-2.953846 1.155282-2.953846 2.92759-5.316923 5.881436-6.498461 1.181538-0.590769 2.061128-1.483487 2.953846-2.363077 8.861538-9.163487 18.011897-18.025026 25.96759-27.779282 12.406154-15.097436 23.630769-30.733128 35.446154-46.093129 4.988718-6.51159 10.89641-13.010051 16.213333-19.23282 0.866462 6.80041 0.288821 13.298872 0 19.521641-0.905846 10.922667-1.483487 21.87159-2.363077 33.083077-0.301949 4.424205 0 8.861538-0.301948 13.298872 0 1.181538-0.892718 2.061128-0.892718 3.255795 0 2.940718 0.892718 6.196513 0.892718 9.163487-0.892718 10.935795-2.087385 21.556513-2.966975 32.492307-0.301949 2.363077 0.87959 4.726154 1.457231 6.813539-1.457231 15.950769 1.798564 32.807385-0.87959 49.650872 2.074256-3.255795 2.665026-5.316923 2.665026-7.378052 0.275692-1.772308 0-3.544615 0-5.618871v-2.953847c0.275692-5.330051 1.444103-10.935795 0.87959-16.265846-0.603897-5.907692-0.603897-11.513436 0.590769-17.132307 0.590769-2.363077-0.288821-5.316923 1.181538-8.27077v4.424206c-0.288821 16.817231 0.301949 33.673846-2.048 50.517333-0.301949 1.483487 0.892718 4.148513-2.363077 3.846564-2.665026 5.316923 0.590769 9.163487-2.349948 12.117333-0.603897 0.590769 0.564513 3.255795 0.866461 5.028103-1.181538 3.544615-1.181538 3.544615 0.577641 3.846564 0.301949 6.498462 0.905846 12.393026 1.181539 18.615795 4.713026-11.224615 2.363077-22.764308 4.437333-34.304 0.301949 4.726154 0.603897 9.465436 0.301949 14.467282 0 7.706256-0.301949 15.097436-0.590769 22.764308 0 1.483487-0.301949 2.966974-0.59077 4.450461-0.892718 4.148513-1.181538 8.270769-2.665025 12.104205-1.181538 2.966974-0.577641 7.404308-0.577641 10.935795v11.250872c1.181538 5.028103-0.301949 7.68 0.577641 10.633846-0.892718 2.966974-1.181538 3.859692-0.892718 4.739282l0.892718 4.437333c5.907692-0.603897 3.255795 3.846564 5.618871 6.196513-1.772308 2.376205-1.181538 3.255795-1.181538 4.46359 0 2.651897-0.275692 5.014974-0.590769 7.666872 0 6.80041-0.288821 13.600821-0.288821 20.099282 0 0.905846 0.288821 1.759179 0.288821 2.651897 0 0.603897-0.288821 8.297026-0.288821 8.297026 0.603897 0.87959 0 1.759179-0.892718 2.651897-0.275692 0-1.16841-37.546667-1.16841-37.546666h-4.424205c-0.590769 17.723077 0.892718 33.686974-2.363077 50.241641-3.544615 0.288821-4.713026 0.87959-8.55959 0.879589-9.150359 0-18.313846 0-27.464205 0.288821-10.922667 0-21.530256 0.288821-32.466051 0.288821-5.290667 0-10.89641 0.617026-16.213333 0.617025-7.089231 0-14.467282-0.905846-21.530257-0.905846-10.935795 0-21.556513 0.905846-32.479179 1.181538-7.955692 0.301949-15.924513 0.301949-23.893334 0.603898-5.316923 0.275692-10.646974 0.564513-15.937641 1.16841-2.363077 0.288821-4.437333 1.181538-7.378051 2.061128-0.905846 0-2.953846-0.288821-4.726154 0-2.966974 0.590769-5.592615 2.363077-8.572718 2.966975-4.424205 0.892718-5.605744 2.061128-5.014974 6.498461v2.953846c-0.301949 0.577641 6.498462-0.905846 6.498461-0.905846-0.603897 0-0.892718 1.772308-1.798564 3.255795 2.389333-0.892718 3.846564-1.483487 5.330052-2.061128 4.437333 2.074256 8.270769 0.892718 11.802256 1.798564 11.500308 2.92759 23.302564 4.148513 35.10482 5.303795 7.68 0.590769 15.058051 0.892718 22.724924 1.181538 10.909538 0.590769 21.832205 1.181538 32.754871 1.181539 9.150359 0 18.011897-0.892718 27.136-0.892718 12.668718 0 25.389949 0.577641 38.071795 0.892718 2.665026 0 5.605744-0.315077 8.55959-0.315077h21.530256c19.206564-0.577641 38.373744-0.892718 57.56718-1.457231 10.935795-0.315077 22.147282-0.892718 33.05682-1.194667l33.64759-0.905846c12.996923-0.288821 25.96759-0.288821 38.662564-0.551384 9.741128 0 19.180308-0.341333 28.934564-0.617026 10.89641-0.301949 22.121026-1.181538 33.043693-1.772308 5.907692-0.301949 11.815385-0.892718 17.723077-1.470359 7.089231-0.590769 14.467282-1.457231 21.530256-1.759179 10.633846-0.617026 21.556513-0.905846 32.190359-1.496615 13.272615-0.87959 26.545231-2.048 40.119795-2.363077 12.406154-0.577641 25.088-0.288821 37.494154-0.577641 10.922667-0.301949 21.845333-0.892718 33.05682-1.181539l18.615795-0.905846s12.379897-0.288821 18.589539-0.892718c10.620718-0.590769 21.241436-1.759179 31.875282-2.048 6.774154-0.315077 13.561436 0 20.348718-0.315077 10.909538-0.288821 22.121026-0.892718 33.043692-0.892718 4.122256 0 8.546462 0.603897 13.863384 0.892718-2.363077 2.087385-3.833436 3.255795-5.605743 4.739282 1.181538 0.288821 2.363077 0.892718 3.544615 1.483487a7.968821 7.968821 0 0 1-4.713025 1.444103c-0.603897 1.496615-1.194667 2.100513-1.785436 5.054359h5.316923c-2.074256 0-3.846564 2.665026-5.907693 4.437333-2.363077-0.603897-4.424205 0-5.605743 3.242667 2.061128 1.181538 1.772308 2.061128 1.483487 3.255795-3.544615 1.16841-6.196513 2.363077-4.713026 6.196513-1.194667 0.577641-2.665026 1.181538-4.148512 2.061128-1.457231 2.363077-4.122256 2.940718-3.544616 6.196513 1.181538 0.288821 2.363077 0.905846 3.255795 1.181538-1.483487 0.577641-2.953846 1.470359-4.437333 2.048-5.303795 3.255795-2.92759 4.726154-1.75918 6.222769-0.892718 0.590769-1.772308 1.181538-2.651897 1.470359 0.577641 2.665026 1.444103 3.255795 1.759179 3.255795a104.30359 104.30359 0 0 0-4.424205 3.544615c-0.905846 2.651897-2.087385 3.833436-3.255795 5.605744s-1.772308 4.148513-3.255795 5.907692c-6.183385 6.813538-10.620718 14.808615-18.57641 20.112411-2.966974 2.074256-5.618872 4.726154-8.270769 7.404307-5.316923 5.014974-10.043077 10.633846-15.648821 15.36a331.907282 331.907282 0 0 1-23.013743 17.434257 1699.708718 1699.708718 0 0 1-29.197128 20.086154c-5.316923 3.544615-11.211487 6.196513-16.817231 9.452307s-10.922667 6.209641-16.541539 9.452308c-3.544615 2.363077-6.787282 5.605744-10.633846 7.404308-9.714872 4.148513-20.073026 7.68-30.089846 11.526564-9.754256 4.148513-16.830359 7.68-24.20841 10.331897a166.596923 166.596923 0 0 1-20.939487 5.618872c-2.363077 0.603897-5.028103 0-7.693129 0.301949-5.014974 0.892718-10.029949 2.074256-15.058051 2.665025-12.996923 1.772308-25.96759 2.953846-38.951384 4.726154-7.68 0.905846-15.058051 2.363077-22.724924 3.255795-5.303795 0.288821-10.909538-0.288821-16.226461-0.28882-3.846564 0-7.968821 0.892718-11.815385 0.301948-6.183385-0.892718-12.393026-2.363077-18.589538-3.544615-1.457231-0.288821-3.544615-0.892718-4.713026-0.288821-2.363077 1.181538-4.437333-0.590769-6.813538 0-1.444103 0.301949-2.92759-0.905846-4.411077-0.905846-1.181538-0.262564-2.665026 0.315077-4.148513 0-3.255795-0.866462-6.196513-2.048-9.754256-1.759179-3.518359 0.301949-7.076103-1.470359-10.883282-2.349949-5.330051-1.181538-10.318769-2.363077-15.661949-3.544615a26.689641 26.689641 0 0 1-5.881436-2.665026c-7.68 0-12.708103-0.301949-17.434256-2.074256-4.122256-1.457231-7.955692-3.544615-12.379898-2.940718-1.181538 0.288821-2.061128-0.288821-3.255795-0.288821-0.905846-1.181538-1.759179-3.557744-2.638769-3.557743-5.907692 0.301949-9.452308-4.713026-14.467282-6.209641-2.651897-0.892718-4.713026-3.846564-7.364923-4.726154-6.51159-2.665026-11.802256-8.270769-19.180308-9.150359-2.363077-0.301949-4.713026-1.483487-7.378051-2.363077 0.892718 1.181538 1.457231 2.061128 2.363077 2.940718-8.55959-4.148513-16.52841-8.861538-24.497231-13.298872-1.181538-0.288821-2.061128-1.444103-2.940718-2.061128l-7.96882-5.316923c-4.424205 0.892718-6.196513-0.892718-7.39118-1.483488-7.968821-5.605744-17.106051-9.163487-24.786051-15.36-3.255795-2.665026-7.076103-4.437333-9.426051-7.693128-4.148513-5.028103-9.163487-8.572718-14.769231-11.513436-4.424205-2.363077-8.533333-5.028103-12.668718-7.693128-2.074256-1.470359-4.148513-3.242667-4.148513-6.498461 0-2.074256-0.87959-4.148513-3.544615-2.953847-1.181538-1.772308-2.349949-3.846564-3.833436-4.437333-3.544615-1.457231-5.894564-4.148513-8.546462-6.498461s-4.726154-5.618872-7.96882-6.787282c-5.907692-2.363077-9.452308-7.378051-12.996923-11.526565-8.270769-9.754256-15.648821-20.401231-23.315693-30.72-0.590769-0.905846-1.772308-1.496615-2.651897-2.376205 1.181538 3.242667 2.651897 5.907692 4.122256 8.861539-2.940718-1.181538-5.001846-3.255795-6.774154-5.316923-0.301949 0.301949 20.348718 34.277744 20.348718 34.277743 1.798564 2.665026 3.255795 5.330051 5.028103 7.981949a9.124103 9.124103 0 0 1-8.861539-4.726154c-2.638769-4.713026-5.605744-7.666872-11.500307-7.062974a51.462564 51.462564 0 0 1-1.457231-6.51159c-1.207795 0-2.074256 0-4.148513-0.301949 4.148513 6.51159 7.68 12.117333 11.513436 18.615795-1.496615-0.892718-2.363077-1.483487-2.966974-1.772307 5.303795 5.605744 9.137231 12.708103 15.924513 16.265846 1.470359 6.787282 9.150359 10.029949 10.922666 16.541538-1.457231-0.301949-2.678154-0.590769-4.148513-0.892718-2.363077-2.953846-5.014974-5.907692-7.666871-9.163487 0.590769 2.074256 1.457231 3.846564 2.651897 5.316923 3.544615 4.437333 6.787282 8.861538 10.922667 12.708103 1.483487 1.509744 3.544615 2.100513 3.544615 4.75241 2.363077 1.181538 3.242667 1.470359 4.122256 1.470359 0.603897 1.785436-0.275692 4.450462 3.255795 3.846564 2.363077 4.437333 4.713026 4.437333 7.955693 2.966974 3.846564 3.846564 5.920821 4.148513 8.572718 1.798564 0 1.444103 0.288821 2.92759 0.28882 4.122257 1.181538-0.590769 0.905846-1.483487 0.905846-2.966975 1.444103 1.181538 2.349949 1.772308 2.92759 2.363077 2.953846 4.148513 5.618872 7.981949 9.741128 11.237744 5.605744 4.726154 10.633846 9.754256 15.924513 14.178462 10.345026 8.585846 21.87159 15.688205 33.358769 22.186666 14.178462 7.968821 27.766154 16.541538 42.220308 24.20841 17.394872 9.189744 35.997538 15.386256 55.177846 19.82359 7.089231 1.483487 13.863385 2.953846 20.965744 4.713026 6.170256 1.785436 12.379897 4.450462 18.589538 5.907692 9.439179 2.087385 19.167179 3.859692 28.619487 5.618872 2.048 0.301949 4.148513 0.603897 6.498462 0.892718 2.625641 0.590769 5.881436-0.590769 6.472205 0.301949 1.483487 2.363077 2.651897 1.181538 4.424205 0.879589 2.074256-0.590769 4.437333-0.590769 6.787282-0.590769 8.270769 0.288821 16.226462 2.061128 24.497231 1.470359 1.798564 0 4.437333-1.483487 5.907692 1.457231 2.665026-1.181538 4.135385-1.181538 5.316923-1.444103 0.315077 2.638769 0 2.638769-0.564512 2.92759-0.603897 0.288821-1.483487 0.590769-2.665026 1.483487 10.620718 2.061128 20.663795 2.363077 29.499077 0 15.36 1.181538 28.632615-0.590769 41.32759-5.028102 1.181538 1.483487 2.074256 3.544615 3.846564 0.603897 0.577641-0.905846 2.061128-1.207795 3.242666-1.496615 2.651897-0.590769 5.907692-1.772308 8.257641-0.892718 2.665026 0.892718 3.544615-1.457231 5.605744-1.457231 3.557744 0 6.80041-0.315077 10.056205-0.905846 1.772308-0.288821 3.544615-1.181538 5.605744-1.772308a14.414769 14.414769 0 0 0-6.51159-1.483487c3.557744-1.772308 6.80041-3.255795 10.056205-4.726154-0.603897 0.87959-1.181538 2.061128-2.363077 2.061128h4.122257c-0.905846 0-2.074256 2.665026-3.544616 4.437334 10.60759-2.665026 20.348718-5.028103 29.801026-7.404308-3.255795-6.196513 3.531487-4.122256 5.894564-7.68a91.50359 91.50359 0 0 1-8.861539 2.363077c10.043077-5.014974 20.361846-9.452308 30.391795-13.876513-1.457231 1.772308-3.255795 2.665026-5.881436 4.148513 1.772308 0.288821 2.940718 0.288821 3.833436 0.564513 4.713026 1.496615 3.544615-2.940718 5.014975-5.605744 5.605744 0 7.955692-0.87959 10.620718-1.772308 2.940718-0.905846 5.894564-1.772308 8.84841-2.953846 4.726154-2.061128 9.150359-4.713026 13.863384-7.062974 0.905846-0.315077 2.363077 0 3.544616 0 3.255795-2.087385 4.424205-3.859692 5.303795-3.570872 4.148513 0.603897 7.062974-0.892718 8.257641-4.699897 2.061128-1.496615 3.544615-2.678154 5.014974-3.570872 6.485333-3.544615 12.668718-7.089231 19.16718-10.633846 2.363077 0 3.544615 0 4.135384-0.301949a128.393846 128.393846 0 0 0 10.935795-5.907692 25.324308 25.324308 0 0 1-2.953846-1.457231c2.940718-0.603897 3.807179-0.905846 5.605744-1.496615 7.062974-8.297026 16.830359-13.915897 24.195282-20.414359 3.255795-0.288821 3.255795-1.181538 3.255794-1.75918 1.16841-1.470359 2.363077-3.242667 3.80718-4.437333 6.51159-5.907692 13.574564-10.935795 19.482256-17.132308a416.741744 416.741744 0 0 0 24.497231-26.624c7.062974-8.270769 14.178462-16.541538 20.073026-25.705026 8.270769-12.708103 15.333744-25.718154 22.711795-39.030153 5.316923-9.452308 10.043077-18.904615 15.36-28.356923 0.564513-0.892718 1.772308-2.074256 2.651897-2.074257 7.968821-0.892718 15.950769-1.444103 23.630769-2.349949 1.759179-0.288821 3.833436-1.457231 5.605744-2.363077-0.905846-1.470359-1.483487-3.242667-2.363077-4.726153-1.181538-1.798564-2.953846-3.255795-4.148513-5.041231-1.16841-1.457231-2.048-3.255795-2.940718-5.014975-0.892718-1.457231-1.772308-2.651897-2.651897-4.148512a108.780308 108.780308 0 0 1-5.054359-10.029949c-0.288821-0.892718-0.892718-2.363077-0.577641-3.255795 5.316923-11.513436 7.378051-23.932718 12.393025-35.446154 5.014974-11.828513 6.498462-25.127385 8.861539-37.835487 2.061128-12.117333 3.255795-24.221538 4.713026-36.338872 0.892718-8.572718 2.074256-16.843487 2.349948-25.416205 1.798564-13.587692 1.181538-26.308923 0.892718-39.017026-0.288821-11.224615-0.892718-22.751179-1.444102-33.988923zM213.35959 818.937436c-2.061128-2.349949-3.833436-5.014974-5.907693-7.364923l0.918975-0.905846c3.203282 3.557744 6.459077 7.102359 9.701743 10.948923-1.772308-0.892718-3.833436-1.483487-4.713025-2.665026z m4.713025 2.678154c0.892718-0.301949 1.798564-0.301949 2.665026-0.590769 0.905846 1.483487 1.483487 3.255795 2.363077 5.028102-4.135385-0.315077-6.196513-2.087385-5.014974-4.437333z m306.937436 122.052923v-0.892718l16.541539-1.772308v0.866462c-5.618872 0.905846-10.922667 1.457231-16.541539 1.772307z m74.371282-7.68c-4.122256 0.892718-8.546462 1.483487-12.681846 2.087384-1.483487 0.288821-3.242667 1.772308-3.833436-0.905846-0.590769 0.301949-1.181538 0.301949-1.772307 0.603898 1.457231 4.424205 5.014974 0.87959 7.96882 2.651897-6.51159 0.892718-12.681846 1.483487-18.891487 2.363077v-0.590769c1.798564-0.288821 3.846564-0.590769 5.605744-0.892718v-0.87959a86.829949 86.829949 0 0 0-8.861539-0.590769c-0.853333 0-2.048 1.181538-2.92759 1.470359-1.181538 0.301949-2.363077 0.603897-3.846564 0.603897-5.001846 0.288821-10.016821 0.288821-14.756102 0.577641-0.301949 0-0.892718-0.288821-1.181539-0.28882v-0.892718c19.771077-2.651897 39.253333-5.303795 59.02441-7.968821 0.301949 0.590769 0.301949 1.181538 0.59077 1.75918-1.772308 0-2.953846 0.617026-4.437334 0.905846z m4.437334-2.940718c6.80041-0.892718 12.996923-1.483487 19.495384-2.363077-13.574564 3.846564-18.011897 4.424205-19.482256 2.363077z m-257.050257-596.676923c9.412923-13.010051 19.167179-26.020103 28.619487-39.318975 2.940718-3.859692 5.303795-8.008205 8.244513-11.841641 0.905846-1.181538 2.074256-1.772308 3.544616-2.953846l-0.288821-0.564513c1.181538-1.496615 2.363077-2.691282 2.953846-3.859692 1.496615-2.363077 2.389333-5.014974 3.557744-7.68 0.301949-0.564513 1.181538-1.155282 1.181538-1.155282 4.148513 2.061128 4.148513-2.363077 5.605744-3.846564 2.665026-2.953846 5.316923-6.196513 7.68-9.163487 1.759179-2.363077 3.544615-4.424205 5.014974-7.089231 0.288821-0.892718-0.590769-2.363077-0.892718-3.544615h-0.879589c0.905846-0.590769 1.772308-1.470359 2.665025-2.074257 0.288821 0 0.288821 0 0.577641-0.28882 1.772308-2.665026 3.544615-5.330051 5.316923-7.693128 3.544615-4.713026 7.364923-9.452308 11.500308-13.574565-0.590769 1.457231-1.181538 2.953846-1.772308 4.135385 0.301949 0 0.301949 0.301949 0.59077 0.301949 3.544615-4.726154 7.378051-9.163487 10.922666-13.915898-0.301949-0.262564-0.590769-0.577641-0.892718-0.577641-1.457231 1.483487-2.651897 2.966974-4.135384 4.437334-0.288821-0.301949-0.577641-0.590769-0.892718-0.59077 2.966974-3.846564 5.920821-7.68 8.861538-12.104205 0.590769 0.892718 1.181538 2.061128 2.363077 4.424205 1.181538-2.953846 2.363077-5.014974 3.242667-7.08923-0.87959 0.892718-2.048 1.772308-2.940718 2.665025l-0.892718-0.892718 5.316923-7.955692c5.605744-7.995077 11.211487-16.278974 16.817231-24.247795 2.074256-2.953846 4.713026-5.316923 6.511589-8.270769 5.605744-11.224615 14.467282-20.11241 21.228308-30.457436 1.483487-2.048 3.544615-3.820308 5.316923-5.592615 1.457231-1.798564 2.665026-1.181538 3.846564 0.28882 7.955692 10.043077 15.924513 20.388103 23.893334 30.43118 5.907692 7.404308 11.815385 14.467282 17.421128 22.16041 6.774154 9.465436 13.272615 18.917744 20.073026 28.383179 7.666872 10.922667 15.333744 21.858462 22.711794 33.083077 11.224615 16.554667 21.845333 33.109333 33.056821 49.650872 8.270769 12.117333 16.541538 23.945846 24.497231 36.06318h-15.084308c-13.850256-0.288821-28.028718-1.457231-41.892103-0.87959-18.891487 0.892718-38.071795 2.966974-56.950153 4.437333-23.906462 2.074256-48.114872 2.363077-71.995077 2.363077-8.585846 0-17.132308 1.194667-25.67877 1.785436-10.345026 0.590769-20.388103 1.181538-30.72 1.457231-12.104205 0.617026-23.880205 0.905846-35.98441 1.207795-6.80041 0.288821-13.876513 0-21.267692 0z m338.484513 135.916307v2.665026c-0.288821 0-0.577641 0.301949-1.181538 0.301949-1.16841-4.148513-2.349949-8.585846-3.820308-12.734359-2.953846-8.572718-6.209641-17.145436-11.526564-24.812308-5.907692-8.270769-11.211487-16.830359-17.132308-25.403077-1.457231-2.074256-3.544615-3.846564-5.316923-5.605743-6.196513-6.813538-12.406154-13.915897-20.361846-18.930872a240.955077 240.955077 0 0 0-36.890257-18.930872 82.707692 82.707692 0 0 1-10.331897-5.303795h7.062974l50.477949-0.905846c10.922667-0.275692 21.543385-0.275692 32.466051-0.866461 2.638769 0 4.122256 0.892718 5.605744 3.242666 2.638769 4.437333 5.303795 8.861538 8.257641 13.298872 0.301949 0.590769 0.892718 1.457231 0.892718 2.363077 0 6.498462 0 13.298872 0.28882 19.797333 0.275692 6.80041 0.892718 13.312 1.168411 20.099282 0 6.80041-0.590769 13.889641-0.288821 20.978872 0.301949 10.056205 0.590769 20.401231 0.590769 30.72z m-317.558154-98.96041c13.876513-0.590769 27.149128-1.483487 40.736821-2.074256 10.594462-0.590769 21.530256-0.892718 32.137846-1.483487 4.437333-0.275692 8.572718-0.551385 12.996923 0-4.726154 2.376205-9.452308 4.75241-13.574564 7.693128-5.316923 3.544615-10.318769 8.270769-15.648821 12.117333-5.330051 3.833436-10.043077 8.572718-14.467282 13.587692-5.605744 6.787282-11.815385 12.694974-17.723077 19.206565-4.148513 4.726154-8.84841 9.163487-12.379897 14.178461-5.014974 6.51159-9.452308 13.574564-14.178462 20.978872 1.483487-28.094359 3.255795-55.847385 2.074257-84.230564z m192.722052 284.291282c-9.452308 2.363077-19.167179 5.028103-28.921436 6.209641-8.257641 1.181538-16.830359 0.892718-25.376821 0.892718-7.693128 0-15.084308-0.288821-22.751179-0.892718-8.55959-0.87959-17.106051-1.759179-25.376821-5.605743-7.089231-3.255795-14.467282-6.209641-21.530256-9.767385-7.115487-3.544615-14.178462-7.666872-19.521641-14.178461-3.807179-4.726154-9.137231-8.572718-13.850257-12.708103 0.892718 3.544615 2.940718 6.498462 6.196513 8.572718-1.483487 1.772308-3.544615 0.892718-6.498461-3.846564-0.87959 0.590769-1.772308 0.892718-2.363077 1.181538 0.892718-2.074256 1.772308-4.148513 2.665025-5.907692-1.181538-2.363077-2.665026-5.028103-3.846564-7.404308a248.648205 248.648205 0 0 1-6.774154-11.815384c-0.603897-0.892718-0.603897-1.759179-1.181538-2.651898a66.087385 66.087385 0 0 1-4.148513-5.330051c-2.363077-3.531487-4.424205-7.351795-7.364923-10.922667 0 0.905846 0.301949 1.772308 0.301949 2.966975-0.301949 0-0.603897 0.288821-0.603898 0.28882l-6.209641-15.071179c-0.288821 0-0.288821 0-0.577641 0.28882l5.303795 19.521641c-0.288821 0-0.590769 0.275692-0.905846 0.275693-0.853333-1.16841-1.746051-2.363077-2.349949-3.80718-0.577641-2.389333-2.363077-2.389333-3.807179-1.496615-0.905846 0.590769-1.496615 2.651897-1.181539 3.544615 2.061128 5.028103 4.411077 10.043077 6.787282 15.07118 0.577641 1.772308 1.181538 3.255795 2.061128 5.028102 0.301949 0.590769 1.181538 1.181538 1.181539 2.061128 1.194667 2.363077 2.087385 4.713026 3.544615 6.800411 2.665026 3.544615 5.618872 7.089231 8.27077 10.633846 2.625641 3.544615 4.988718 7.391179 7.351794 10.922666 0.301949 0.603897 1.181538 0.603897 1.457231 0.905847 1.496615 4.424205 6.51159 7.666872 10.056205 5.894564 0.892718 6.80041 8.270769 9.163487 11.211488 15.661948a134.091487 134.091487 0 0 1-8.55959-3.846564c-0.301949 0.301949-0.301949 0.590769-0.603898 1.181539 3.544615 1.772308 7.089231 3.544615 10.31877 5.605743 2.966974 1.798564 5.920821 3.544615 8.585846 5.605744 3.544615 3.255795 7.68 5.054359 12.668718 6.209641-0.262564-0.892718-0.564513-1.181538-0.564513-1.181539 8.257641 3.833436 16.830359 7.968821 23.302564 11.198359-30.693744 0.603897-63.448615 1.207795-97.398154 1.798565 0-5.605744-0.288821-10.935795-0.28882-16.541539 0-2.363077 0.577641-4.437333 0.275692-6.813538-0.892718-13.561436-0.892718-27.175385-2.651898-40.474257-1.759179-14.178462-1.759179-28.081231-1.45723-42.27282 0.275692-7.666872-0.301949-15.648821-0.603898-23.341949 0-10.331897 0-20.401231 0.315077-30.72 0-1.483487 0.590769-2.665026 1.181539-4.148513h0.892718c0.288821 0.603897 0 1.483487 0.564512 1.785436 0.905846 0.905846 2.376205 2.363077 2.980103 2.061128 1.759179-1.181538 4.411077-2.349949 5.001846-4.148513 1.457231-3.531487 2.074256-7.378051 2.074257-10.922666 0-2.638769 1.181538-4.411077 2.349948-6.196513 0.603897-0.892718 0.892718-1.772308 1.496616-2.953846-1.181538-0.892718-2.363077-1.483487-3.846564-2.651898 1.194667-3.255795 0.905846-7.102359 5.330051-8.861538 0.590769-0.301949 0.590769-1.798564 0.905846-2.665026 0.262564-2.389333 0.551385-5.054359 0.866462-7.404307 0.590769 0.892718 0.905846 1.181538 1.45723 1.759179a4.713026 4.713026 0 0 1 0.603898-0.892718c0-1.181538-0.288821-3.544615 0-3.544615 3.544615-0.590769 2.074256-4.424205 3.846564-6.196513 0.262564-0.315077-0.315077-1.194667-0.315077-1.798564 0-0.577641 0-1.444103 0.301949-1.444103 4.109128-0.905846 3.531487-5.330051 6.183384-7.404307 0.905846-0.603897 1.181538-1.470359 2.363077-2.953847 2.349949 4.122256-1.772308 6.196513-2.074256 9.150359 5.001846-2.953846 6.485333-10.043077 3.544615-12.117333 1.181538-0.892718 2.349949-2.061128 3.242667-3.242667 3.255795-3.544615 6.774154-6.80041 9.741128-10.345025 2.074256-2.651897 3.242667-5.907692 5.316923-8.55959 1.181538-1.483487 3.544615-2.651897 5.316923-3.544615 5.303795-2.940718 10.305641-6.196513 13.561436-11.224616 0.590769-0.590769 1.483487-1.181538 2.363077-1.772307 0.892718-0.590769 2.665026-0.590769 2.953846-1.483488 0.301949-0.577641-0.577641-2.061128-1.181538-2.940718 1.181538-0.603897 2.363077-1.772308 4.726154-2.966974-0.918974 1.772308-1.181538 2.966974-1.785436 4.148513l1.45723 1.457231c2.678154-2.061128 6.80041-4.411077 9.452308-6.183385 0-0.288821-1.470359-1.457231-1.470359-1.457231-1.759179 0.892718-4.424205 2.363077-7.076102 3.544616 0.564513-0.905846 0.564513-1.483487 0.905846-1.772308 4.109128-2.665026 8.244513-5.316923 12.668718-7.404308 10.318769-4.713026 20.663795-9.452308 30.982564-13.876513 1.772308-0.892718 4.148513-0.288821 6.209641-0.28882 0.866462 0 1.444103 0 2.363077-0.288821 4.699897-1.483487 9.426051-2.966974 14.152205-4.148512 2.048-0.590769 4.411077-0.87959 6.51159-0.87959 8.822154 0.275692 17.683692 0.275692 26.518974 0.87959 3.846564 0.288821 7.391179 1.181538 10.935795 2.363076a110.802051 110.802051 0 0 1 13.272615 5.592616c5.014974 2.691282 9.741128 5.645128 14.467282 8.887795 8.55959 5.605744 16.52841 11.815385 25.074872 16.843487 8.270769 5.028103 14.756103 11.815385 20.086154 19.508513 6.498462 9.150359 13.863385 17.434256 16.804102 28.658872l4.424206 19.508512c0.905846 3.544615 2.966974 7.089231 2.074256 11.224616-1.483487 7.391179-2.665026 15.084308-3.846564 22.462359-0.577641 2.980103-1.181538 5.947077-0.866462 8.861538 0.551385 9.189744-2.980103 17.158564-6.511589 25.442462-1.181538 2.651897-2.953846 5.330051-4.424206 8.270769a8.953436 8.953436 0 0 0 2.363077 1.181538l2.651898-5.303794c0.301949 0 0.301949 0 0.590769 0.301948-1.483487 4.122256-2.651897 8.572718-4.148513 12.708103-3.518359 9.163487-7.062974 18.615795-11.500307 27.477333-2.363077 5.014974-6.498462 9.163487-9.43918 13.902769-2.940718 4.122256-5.303795 8.55959-8.257641 12.406154-2.651897 3.242667-5.303795 6.498462-8.861538 8.861539-7.955692 5.907692-16.226462 11.815385-24.772924 16.541538-5.316923 3.255795-11.513436 5.028103-17.408 6.51159z m-157.302154-15.701333l-0.288821 0.301949c-0.617026-0.288821-1.509744-0.577641-2.087384-1.181539l-7.089231-10.633846a3.360821 3.360821 0 0 1-0.577641-2.953846c3.242667 5.028103 6.498462 9.767385 10.029948 14.467282zM586.699487 682.404103c13.259487-5.605744 24.195282-13.561436 34.212103-22.738052 1.483487-1.483487 2.953846-2.953846 4.726154-4.148513 12.406154-7.68 21.530256-18.313846 29.801025-30.142359 9.452308-13.587692 15.648821-28.947692 23.341949-43.428102a30.614974 30.614974 0 0 1 1.759179-3.255795c-0.603897 33.686974 3.242667 66.783179 7.666872 100.181333-33.345641 1.181538-67.282051 2.363077-101.52041 3.544616z m299.244308-8.861539c-0.288821 0.603897-0.892718 1.194667-1.181539 1.798564-0.301949-0.603897-0.301949-1.496615-0.590769-2.691282-1.772308 4.739282-5.605744 2.376205-8.270769 2.376205-15.911385 0.301949-32.164103 0.301949-48.101744 0.301949-15.346872 0-30.982564 0-46.316307 0.262564-5.028103 0-10.345026 1.181538-15.36 1.496615-12.091077 0.577641-24.195282 0.892718-36.299488 1.181539-0.892718 0-1.772308-1.470359-3.255794-2.651897a20.296205 20.296205 0 0 1-1.772308 2.651897c-0.301949-0.577641-0.892718-1.16841-1.483487-2.048a17.211077 17.211077 0 0 1-0.892718 2.363077h-0.853334c-0.603897-4.135385-1.772308-7.968821-1.772307-12.117333 0-8.861538 0.892718-17.723077 1.181538-26.610872 0.288821-4.122256 0-7.955692 0-11.815385 1.181538 0.892718 2.061128 1.483487 3.242667 2.363077 0.577641-1.16841 1.181538-2.048 1.772308-2.92759 0 0-0.590769-0.315077-1.181539-0.892718 0.551385-0.301949 1.155282-0.905846 1.155282-1.181538 0.301949-0.918974 0.905846-1.785436 0.905846-2.363077 0-2.074256-0.603897-3.846564-0.905846-5.605744 0.301949 0 0.590769 0 0.905846-0.315077l1.75918 8.861539h0.892718c-1.181538-2.061128 2.651897-3.833436-0.590769-6.196513-0.288821-0.301949 0.288821-2.074256 0.28882-2.953846-0.892718-1.759179-1.457231-3.544615-2.363077-5.907692 0.301949-0.288821 1.181538-0.590769 2.074257-0.892718-1.181538-0.577641-2.061128-1.16841-2.953847-1.457231 2.953846-2.665026 2.953846-4.148513 0.288821-7.089231 0.617026-0.288821 1.181538-0.288821 1.181538-0.577641 0-2.665026 0-5.316923-0.564512-7.955692-0.603897-2.980103 0.892718-6.51159-3.544616-8.297026a8.861538 8.861538 0 0 0 1.181539 2.363077s-0.918974 0.288821-1.785436 0.892718c-3.833436-3.557744-1.444103-8.310154-2.363077-13.613949 2.074256 0.603897 3.544615 1.181538 5.028102 1.798564-0.603897-2.087385-2.061128-4.46359-2.953846-7.115487h-1.194666v-19.508513c0 0.301949 2.061128 0.301949 3.242666 0.603898 0-0.301949 0.288821-0.590769 0.288821-0.892718-0.905846-1.181538-2.074256-2.363077-3.255795-3.833436l0.590769-0.603897c-2.363077-2.92759-1.181538-7.062974-1.181538-7.955693v-20.690051c2.966974 2.953846-1.444103 6.787282 2.966974 8.55959v-2.940718h-0.301949c-0.288821-4.437333-0.288821-8.861538-0.577641-13.298872h-0.590769c-0.301949 0.603897-0.301949 0.892718-0.603897 1.483487h-0.577641l1.772307-70.629743c2.940718 3.833436 6.183385 7.404308 8.244513 11.211487 6.80041 12.43241 15.648821 23.079385 23.91959 34.304 7.089231 9.754256 13.561436 20.388103 20.073025 30.431179 7.955692 12.117333 15.622564 24.221538 23.604513 36.338872a912.987897 912.987897 0 0 0 18.274462 27.201641c5.605744 7.968821 11.539692 15.661949 17.434256 23.355077 4.988718 6.80041 10.318769 13.587692 15.333744 20.388103 5.907692 8.270769 11.815385 16.541538 17.723077 24.523487 2.92759 4.122256 6.170256 8.270769 9.412923 12.406154 1.798564 2.363077 4.437333 4.148513 6.209641 5.605743-0.275692 0-0.577641 0-1.16841-0.28882 0.905846 1.181538 1.457231 2.061128 2.074256 2.651897 3.242667 1.772308 3.544615 3.544615 1.759179 6.222769z m15.058051-73.859282v-2.074256c0 0.590769 0.288821 1.457231 0 2.061128z m10.029949-130.310564c-0.301949 0-2.061128-1.798564-2.363077-2.087385-0.288821 0.892718 0 1.772308-0.590769 2.966975-0.301949-0.87959-2.349949-0.590769-2.349949-1.457231-0.301949 4.122256 1.759179 8.270769 1.457231 12.393026 0.892718-0.590769 4.437333-0.892718 5.316923-1.772308a2.310564 2.310564 0 0 0 1.181538 0.590769c-5.907692 4.437333-4.424205 8.861538-1.759179 13.902769 0.577641 1.16841 2.349949 3.544615 0.577641 5.907693-0.577641 0.590769 0.301949 2.349949 0.590769 3.833436h0.866462v0.564512l-2.651898 0.892718c-0.590769-0.892718-4.122256-2.638769-4.122256-4.148513v15.097436c2.953846 0.905846 2.953846 5.028103 4.135384 7.089231a8.612103 8.612103 0 0 0 1.181539-2.33682l0.315077 0.262564c-0.301949 1.772308-0.590769 3.544615-1.181539 5.330051-0.590769 2.638769-1.181538 5.014974-1.470359 7.666872 0 0.288821 0.564513 0.892718 0.564513 1.181538-3.229538 7.404308-1.457231 15.648821-2.625641 23.328821-0.905846 5.605744 0 11.552821-0.603897 17.447384-0.603897 5.028103-1.798564 10.331897-2.953846 15.36-0.315077 0.905846-0.905846 1.181538-2.363077 1.772308 0.590769-3.544615 0.288821-5.907692-0.301949-9.163487-0.315077 0-4.148513-2.061128-4.46359-2.061128 0 4.148513 2.363077 9.754256 3.268923 14.467282-0.905846-0.288821-4.437333-2.363077-4.726154-2.363077-0.590769 3.544615-0.590769 8.283897-0.879589 12.117333-0.315077 2.966974-2.953846 5.605744-3.255795 8.861539 0 1.798564 2.061128 2.966974 1.772307 5.92082h2.363077c0-5.907692 2.651897-11.211487 2.651898-17.421128h0.87959c0.301949 0.590769 1.181538 1.181538 0.892718 1.470359-0.590769 3.255795-1.785436 6.80041-1.470359 10.056205 0 1.772308 1.444103 3.544615 0.892717 5.605744-0.603897 1.798564-0.892718 3.544615-1.194666 6.209641-0.301949-1.483487-0.603897-2.061128-0.603898-2.940718-0.288821 0-2.940718-0.315077-3.242666-0.315077-0.301949 1.772308 2.074256 3.544615 1.772307 5.028102-0.301949 0.288821-0.590769 0.288821-1.181538 0.59077l-9.741128-14.19159c-7.693128-11.211487-15.36-22.462359-23.026872-33.975795a70.787282 70.787282 0 0 1-5.330051-8.861538 415.954051 415.954051 0 0 0-30.391795-45.226667c-8.533333-10.935795-15.36-22.777436-23.328821-34.264616-7.351795-10.935795-14.729846-21.582769-22.107897-32.531692-2.665026-3.531487-5.907692-6.774154-8.270769-10.633846-7.653744-12.104205-14.467282-24.523487-22.121026-36.627692-6.498462-10.056205-13.561436-19.82359-20.348718-29.564718-2.363077-3.255795-4.726154-6.813538-7.089231-10.345026a4.148513 4.148513 0 0 1-0.590769-2.048c-0.590769-6.498462-1.181538-12.996923-1.483487-19.206564 0-5.907692 0.590769-11.815385 0.590769-18.038154v-5.316923c0-1.483487 0.288821-2.651897 0.288821-4.148513 0.275692-0.275692 0.577641-0.87959 0.866461-1.16841-8.546462 0-17.408-0.315077-25.96759 0-5.605744 0.288821-8.55959-2.087385-12.393025-6.222769-11.211487-12.708103-19.482256-27.175385-29.210257-40.776205a1821.499077 1821.499077 0 0 0-28.041846-38.426257c-7.68-10.345026-15.36-20.388103-23.026872-30.733128-8.55959-11.815385-16.817231-23.630769-25.678769-35.459282-10.633846-14.178462-21.556513-28.370051-32.466051-42.548513-5.054359-6.51159-10.660103-12.708103-16.265846-19.521641 3.846564 0.617026 7.404308 1.181538 10.935795 1.496616l14.178461 0.892717c10.620718 0.866462 21.241436 1.457231 31.849026 2.914462 8.861538 1.207795 17.723077 2.980103 26.873436 4.450462 19.482256 3.242667 38.662564 8.572718 57.26523 14.782359 10.922667 3.544615 21.530256 8.270769 32.177231 12.694974 23.893333 9.767385 46.618256 21.582769 69.054359 33.988923 7.062974 3.846564 11.211487 10.043077 16.502154 15.661949 7.68 7.981949 15.36 15.963897 22.738051 24.221538 8.533333 9.767385 16.502154 19.810462 24.786052 29.853539 7.364923 8.861538 15.018667 17.723077 22.422974 26.610871 2.363077 2.651897 4.148513 5.907692 6.196513 8.861539 4.713026 7.089231 10.029949 13.902769 14.165333 21.569641 2.940718 5.632 4.713026 12.130462 6.774154 18.340102 2.940718 9.163487 5.907692 18.025026 8.861538 27.175385 2.048 6.80041 3.807179 13.915897 5.290667 20.978872 1.181538 4.739282 0.892718 9.754256 2.363077 14.467282 1.785436 6.235897 0 12.996923 1.785436 19.23282 0.275692 0.590769 0.564513 1.483487 0.866461 2.074257 1.181538 1.16841 2.074256 2.363077 0.301949 4.122256-0.288821 0.301949-0.288821 1.457231 0 2.363077 0.603897-0.590769 0.892718-1.181538 1.483487-2.061128 0 0.590769 0.288821 0.892718 0.288821 1.181538 0 1.155282-0.301949 2.349949 0 3.518359 0 0.590769 0.577641 1.457231 0.866461 2.074257 0.603897-0.617026 1.181538-0.905846 2.363077-1.798564 2.651897 10.056205 2.953846 20.11241 2.953846 30.457436 0 9.741128 1.759179 19.508513-2.363076 28.96082 0.87959-3.255795-1.181538-6.222769-0.288821-9.176615z" fill="#E53935" p-id="8178"></path><path d="M722.445128 584.297026c0.288821 0 0.590769 0.301949 0.590769 0.301948l-0.301948-0.328205c0-0.288821 0-0.288821-0.288821 0z m46.631385 291.997538c-3.255795 2.349949-6.498462 4.424205-10.633846 5.303795-0.315077-0.288821-0.315077-0.590769-0.603898-0.892718 3.255795-2.061128 6.787282-4.122256 10.043077-6.196513 0.301949 0.551385 0.892718 1.16841 1.181539 1.75918z m-553.353846-400.462769c3.242667-4.122256 6.498462-8.257641 10.01682-12.393026 0.288821 0.288821 2.638769 0.892718 2.940718 1.181539-3.255795 4.148513-7.68 9.754256-10.922667 14.178461-0.603897-0.590769-1.483487-2.651897-2.074256-2.953846z m-83.836718 144.843487c-2.363077-5.028103-4.713026-10.358154-7.062975-15.36a10.200615 10.200615 0 0 1 2.651898-1.194667c3.242667 4.713026 4.699897 10.318769 7.089231 15.36 0 0-2.363077 1.181538-2.665026 1.181539zM207.163077 478.785641c-1.772308 2.678154-3.544615 5.645128-5.316923 8.310154-0.288821-0.315077-3.544615 1.155282-3.833436 0.866461 1.772308-2.651897 6.183385-7.404308 7.955692-10.043077 0.301949 0.288821 0.603897 0.590769 1.181539 0.892718z m530.340102 409.626256c0.288821 0 0.288821-0.288821 0.59077-0.28882 2.061128 0.288821 4.411077 0.577641 6.787282 0.577641-3.859692 2.665026-6.235897 2.363077-7.404308-0.288821zM207.72759 491.218051a12.419282 12.419282 0 0 1 1.483487-2.651897c0.590769 0 1.457231-0.301949 1.457231-0.301949 1.207795-2.074256 1.207795-3.544615 2.376205-5.316923-0.288821-0.301949-0.590769-0.301949-0.892718-0.603897-1.759179 1.220923-3.544615 2.691282-5.303795 3.87282 0.590769 0.577641 0.590769 0.892718 0.590769 1.483487-2.363077-0.301949-3.255795 0.892718-4.424205 4.122257-0.288821 0.892718-1.772308 1.181538-3.255795 2.363077-0.288821 0.603897-0.577641 2.074256-1.181538 3.544615l0.301948 0.315077a4.411077 4.411077 0 0 1-1.470358 0.905846c-1.772308 1.759179-3.833436 3.242667-5.605744 5.001846-0.301949 0.905846-0.590769 1.772308-0.590769 2.665026 2.074256-2.061128 5.605744-5.907692 8.270769-8.270769l0.301949 0.301948c1.181538-1.772308 2.061128-3.544615 3.242666-5.316923 0.288821 0.288821 0.288821 0.577641 0.59077 0.892718-0.892718 2.363077-1.772308 5.001846-2.665026 7.364923-0.617026 0.288821-1.496615 0.905846-1.496615 0.59077-1.181538 0.905846-2.061128 2.074256-3.255795 2.953846l-5.303795 3.544615c-2.940718 2.665026-5.907692 5.014974-9.150359 7.68-2.061128 3.255795-4.122256 6.209641-6.498462 10.056205 3.544615-0.905846 4.437333 0.590769 4.148513 3.544616 4.122256 0.590769 4.424205-2.651897 5.605744-5.014975 0.288821-0.603897 0.590769-1.798564 1.181538-2.100513 2.651897-2.349949 5.605744-4.411077 8.546462-6.774153 0.603897-0.590769 0.603897-1.798564 0.603897-2.665026 0-0.288821-1.496615-0.288821-2.376205-0.603897 2.651897-2.953846 6.498462-7.955692 9.150359-11.211488 1.470359-0.892718 2.940718-2.087385 2.940718-2.966974-0.288821-3.255795 1.772308-4.135385 4.148513-5.316923-1.181538-0.892718-1.483487-1.759179-1.483487-2.048z" fill="#E53935" p-id="8179"></path><path d="M213.64841 487.975385c-1.181538 2.048-2.363077 3.820308-3.544615 5.907692l-1.75918-0.905846c-1.181538 6.787282-5.316923 12.694974-9.452307 13.876513 1.181538 0.590769 2.363077 1.181538 3.255795 0.892718 0.87959-0.301949 1.457231-1.785436 2.048-2.665026l7.96882-11.526564 2.665026-4.450462-1.181539-1.181538zM115.383795 617.682051c1.470359 0 2.953846 0.288821 4.699897 0.288821 0-1.181538 1.496615-0.892718 1.496616-2.061128h0.892718c0 1.483487 0.301949 2.665026 0.301948 4.148512H116.578462c-0.301949-0.301949-1.483487-2.087385-1.181539-2.363077z m-2.363077-13.587692c-0.892718-0.892718-2.363077-1.772308-2.363077-2.665026-0.288821-1.155282 0.590769-2.625641 1.470359-4.109128 0.603897 2.061128 0.892718 3.833436 1.483487 5.907692-0.301949 0.275692-0.603897 0.590769-0.603897 0.87959z m7.378051-18.917744c1.181538 2.980103 2.363077 6.235897 3.544616 9.189744a8.953436 8.953436 0 0 0-2.363077 1.181538c-1.16841-2.966974-2.651897-6.209641-3.820308-9.163487a7.31241 7.31241 0 0 1 2.651897-1.181538z m656.961641 282.545231c1.457231-0.590769 3.229538-0.905846 5.605744-1.457231-2.665026 2.048-4.726154 3.531487-6.498462 5.303795-0.301949-0.288821-0.590769-0.603897-0.892718-0.603897 0.590769-1.181538 1.181538-2.061128 1.785436-3.242667zM414.614974 243.265641c1.759179-1.181538 3.255795-2.074256 5.014975-3.242667l0.577641 0.577641c-1.798564 2.363077-3.255795 4.713026-5.330052 7.68-0.288821-2.048-0.288821-3.255795-0.590769-4.713025-0.288821 0 0 0 0.301949-0.288821z m86.462359 149.530256c2.665026-1.181538 5.316923-2.363077 8.55959-3.846564-0.288821 1.772308-0.288821 2.953846-0.28882 4.148513a10.397538 10.397538 0 0 0-2.966975-0.603897c-1.772308 0.301949-5.028103 2.665026-6.498461 2.953846-0.288821 0 1.181538-2.349949 1.181538-2.651898z m221.380923 250.617436c0.577641 2.940718 6.183385 4.411077 0.577641 7.364923 0.905846 0.617026 1.759179 0.892718 2.651898 1.509744a2.231795 2.231795 0 0 1-0.577641 1.181538c-0.603897 0.288821-1.772308 0.87959-2.363077 0.564513-0.301949 0-0.892718-1.16841-0.892718-1.759179 0-2.665026 0.301949-5.316923 0.590769-8.861539z" fill="#E53935" p-id="8180"></path></svg>
